<?xml version="1.0" encoding="UTF-8"?>
<!DOCTYPE svg PUBLIC "-//W3C//DTD SVG 1.1//EN" "http://www.w3.org/Graphics/SVG/1.1/DTD/svg11.dtd">
<!-- Creator: CorelDRAW 2019 (64 Bit) -->
<svg xmlns="http://www.w3.org/2000/svg" xml:space="preserve" width="29.6333mm" height="29.6333mm" version="1.1" style="shape-rendering:geometricPrecision; text-rendering:geometricPrecision; image-rendering:optimizeQuality; fill-rule:evenodd; clip-rule:evenodd"
viewBox="0 0 2963.33 2963.33"
 xmlns:xlink="http://www.w3.org/1999/xlink">
 <defs>
  <style type="text/css">
   <![CDATA[
    .fil0 {fill:#F0F0F0;fill-rule:nonzero}
    .fil3 {fill:#F43030;fill-rule:nonzero}
    .fil2 {fill:#F45050;fill-rule:nonzero}
    .fil1 {fill:white;fill-rule:nonzero}
   ]]>
  </style>
 </defs>
 <g id="Camada_x0020_1">
  <metadata id="CorelCorpID_0Corel-Layer"/>
  <g id="_2515563976032">
   <path class="fil0" d="M809.17 512.79l1358.65 0c22.24,0 41.65,15.31 46.82,37.01l157.92 654.28c7.26,30.38 -15.7,59.55 -46.91,59.55l-1674.32 0c-31.21,0 -54.17,-29.17 -46.9,-59.55l157.87 -654.28c5.21,-21.7 24.58,-37.01 46.87,-37.01zm1626.32 1741.3l-454.68 0 0 -204.43 454.68 0 0 204.43zm-531.67 -310.77l-276.69 0 0 276.69 -269.34 0 0 -276.69 -276.6 0 0 -269.3 276.6 0 0 -276.69 269.34 0 0 276.69 276.69 0 0 269.3zm-938.15 310.77l-454.64 0 0 -204.43 454.64 0 0 204.43zm-326.51 -1817.57l-213.38 759.74c-17.82,63.81 -26.96,129.77 -26.96,196.08l0 928.02 2187.33 0 0 -928.02c0,-66.31 -9,-132.27 -27,-196.08l-213.29 -759.74c-14.86,-52.63 -62.85,-89.08 -117.65,-89.08l-433.09 0c15.06,0 27.33,-11.39 27.33,-25.29l0 -28.21c0,-14 -12.27,-25.39 -27.33,-25.39l-439.08 0c-15.02,0 -27.28,11.39 -27.28,25.39l0 28.21c0,13.9 12.26,25.29 27.28,25.29l-599.35 0c-54.68,0 -102.75,36.45 -117.52,89.08z"/>
   <path class="fil1" d="M2167.82 512.79l-1358.65 0c-22.29,0 -41.66,15.31 -46.87,37.01l-157.87 654.28c-7.27,30.38 15.69,59.55 46.9,59.55l1674.32 0c31.21,0 54.17,-29.17 46.91,-59.55l-157.92 -654.28c-5.17,-21.7 -24.58,-37.01 -46.82,-37.01z"/>
   <path class="fil0" d="M607.68 2905.65l116.18 0c53.42,0 96.73,-43.19 96.73,-96.57l0 -284.28 -309.57 0 0 284.28c0,53.38 43.28,96.57 96.66,96.57z"/>
   <path class="fil0" d="M2242.85 2905.65l116.19 0c53.41,0 96.73,-43.19 96.73,-96.57l0 -284.28 -309.65 0 0 284.28c0,53.38 43.23,96.57 96.73,96.57z"/>
   <polygon class="fil2" points="511.02,2254.09 738.31,2254.09 738.31,2049.66 511.02,2049.66 "/>
   <polygon class="fil3" points="738.31,2254.09 965.66,2254.09 965.66,2049.66 738.31,2049.66 "/>
   <polygon class="fil3" points="1980.81,2254.09 2208.13,2254.09 2208.13,2049.66 1980.81,2049.66 "/>
   <polygon class="fil2" points="2208.13,2254.09 2435.49,2254.09 2435.49,2049.66 2208.13,2049.66 "/>
   <path class="fil3" d="M1701 25.39l-250.78 0c-13.89,0 -25.87,9.43 -29.17,22.89l-53.41 220.27 415.91 0 -53.38 -220.27c-3.3,-13.46 -15.4,-22.89 -29.17,-22.89z"/>
   <polygon class="fil1" points="1627.13,2220.01 1627.13,1943.32 1903.82,1943.32 1903.82,1674.02 1627.13,1674.02 1627.13,1397.33 1357.79,1397.33 1357.79,1674.02 1081.18,1674.02 1081.18,1943.32 1357.79,1943.32 1357.79,2220.01 "/>
   <path class="fil3" d="M2586.14 2320.37l-2218.59 0c-25,0 -45.28,20.19 -45.28,45.27l0 113.8c0,25.08 20.28,45.36 45.28,45.36l2249.9 0c25.03,0 45.32,-20.28 45.32,-45.36l0 -113.8c0,-25.08 -20.29,-45.27 -45.32,-45.27l-31.31 0z"/>
  </g>
 </g>
</svg>
