<?xml version="1.0" encoding="UTF-8"?>
<!DOCTYPE svg PUBLIC "-//W3C//DTD SVG 1.1//EN" "http://www.w3.org/Graphics/SVG/1.1/DTD/svg11.dtd">
<!-- Creator: CorelDRAW 2019 (64 Bit) -->
<svg xmlns="http://www.w3.org/2000/svg" xml:space="preserve" width="149.931mm" height="149.931mm" version="1.1" style="shape-rendering:geometricPrecision; text-rendering:geometricPrecision; image-rendering:optimizeQuality; fill-rule:evenodd; clip-rule:evenodd"
viewBox="0 0 14993.06 14993.06"
 xmlns:xlink="http://www.w3.org/1999/xlink">
 <defs>
  <style type="text/css">
   <![CDATA[
    .fil2 {fill:#FEFEFE;fill-rule:nonzero}
    .fil10 {fill:#F1F1F2;fill-rule:nonzero}
    .fil18 {fill:#E6E7E8;fill-rule:nonzero}
    .fil4 {fill:#D2D3D5;fill-rule:nonzero}
    .fil3 {fill:#BDBFC1;fill-rule:nonzero}
    .fil11 {fill:#A9ABAE;fill-rule:nonzero}
    .fil14 {fill:#A2A4A6;fill-rule:nonzero}
    .fil17 {fill:#848688;fill-rule:nonzero}
    .fil22 {fill:#6F7072;fill-rule:nonzero}
    .fil27 {fill:#FBB24A;fill-rule:nonzero}
    .fil28 {fill:#C99141;fill-rule:nonzero}
    .fil25 {fill:#ED3237;fill-rule:nonzero}
    .fil5 {fill:#EB5957;fill-rule:nonzero}
    .fil9 {fill:#B14746;fill-rule:nonzero}
    .fil20 {fill:#8D3B3A;fill-rule:nonzero}
    .fil23 {fill:#743331;fill-rule:nonzero}
    .fil26 {fill:#B23B39;fill-rule:nonzero}
    .fil7 {fill:#7FD0E2;fill-rule:nonzero}
    .fil21 {fill:#73CDDB;fill-rule:nonzero}
    .fil12 {fill:#45484A;fill-rule:nonzero}
    .fil16 {fill:#444749;fill-rule:nonzero}
    .fil1 {fill:#2C2C2E;fill-rule:nonzero}
    .fil6 {fill:#2D333F;fill-rule:nonzero}
    .fil15 {fill:#2A2F39;fill-rule:nonzero}
    .fil0 {fill:#282C35;fill-rule:nonzero}
    .fil8 {fill:#17BED1;fill-rule:nonzero}
    .fil19 {fill:#00BAC7;fill-rule:nonzero}
    .fil24 {fill:#079099;fill-rule:nonzero}
    .fil13 {fill:#24323D;fill-rule:nonzero}
   ]]>
  </style>
 </defs>
 <g id="Camada_x0020_1">
  <metadata id="CorelCorpID_0Corel-Layer"/>
  <path class="fil0" d="M3840.62 12750.59c-539.14,0 -805.97,-224.85 -805.97,-224.85l-2393.31 -1444.39c-329.21,-306.35 141.11,-485.1 141.11,-485.1l396.8 -194.84c32.56,59.02 71.88,114.65 119.12,165.88 0.05,0.07 0.1,0.14 0.16,0.17 0.28,0.32 0.57,0.64 0.86,0.96 0.07,0.07 0.11,0.1 0.18,0.17 0.35,0.39 0.68,0.74 1.02,1.1 0,0 872.51,979.59 2302.08,1487.62 0,0 277.71,136.96 670.42,136.96 286.07,0 633.13,-72.68 978.32,-323.9l3192.93 -1341.47 4927.63 -1976.68 1056.15 150.71c193.14,90.41 -263.6,210.32 -263.6,210.32l-9760.16 3763.3c-212.9,53.51 -400.76,74.04 -563.74,74.04z"/>
  <path class="fil1" d="M11696.45 9223.66c0,0 -140.23,-1261.43 864.7,-1655.94 0,0 895.14,-321.38 895.14,950.67l-1759.84 705.27z"/>
  <path class="fil2" d="M1121.65 9042.44c73.31,357.61 378.76,647.63 645.61,873.62 307.93,260.84 649.06,482.6 998.12,684.11 181.56,104.77 366.9,213.99 560.51,295.91 329.06,139.17 692.11,85.16 964.13,-143.13l1279.32 -1345.07 1103.13 -1673.29c0,0 684.89,-963.12 1771.87,-1418.66l5379.19 -2080.48 -3445.37 -891.08 -5294.1 1660 -3962.41 4038.07z"/>
  <path class="fil1" d="M5554.66 12431.71l-570.09 -152.32c0,0 -101.21,-49.42 -131.94,-145.77 -76.55,-328.43 -134.44,-496.72 3.85,-844.3 206.9,-520.17 651.47,-831.68 992.96,-695.89 341.46,135.89 450.68,667.63 243.84,1187.73 -128.51,323.24 -308.36,545.74 -538.62,650.55z"/>
  <path class="fil3" d="M2306.91 7652.85c-571.13,691.34 -1000.12,1791.51 -1000.12,1791.51 0,0 -305.65,-319.83 -138.35,-553.37l1138.47 -1238.14z"/>
  <path class="fil2" d="M5021.23 5031c-904.14,339.87 -1493.94,1151.43 -1493.94,1151.43l-1212.12 1475.96 -968.48 1182.9c-624.53,994.44 1800.89,2071.61 1800.89,2071.61 695.9,587.98 1347.87,-37.14 1347.87,-37.14l1203.64 -1270.08c434.97,-425.45 533.22,-801.47 779.53,-1354.06 249.8,-560.53 567.76,-698.96 567.76,-698.96 444.01,-354.54 1050.36,-1016.88 1402.37,-1235.08l-3427.52 -1286.58z"/>
  <path class="fil2" d="M1137.85 9698.54c-25.57,-212.41 -17.37,-412.58 1.65,-579.58 -7.3,-25.51 -13.37,-51.09 -17.85,-76.52 -28.93,185.84 -49.47,433.03 -17.43,698.5 93.23,177.66 239.02,354.26 409,521.41l0 -76.31c-155.44,-157.06 -288.42,-321.73 -375.37,-487.5z"/>
  <path class="fil4" d="M8448.75 6301.81c-526.42,213.47 -1140.82,687.39 -1140.82,687.39 -285.5,166.55 -635.46,745.39 -635.46,745.39l-972.15 1481.77c-67.23,160.58 -413.7,427.71 -413.7,427.71l-1012.29 1149.59c0,0 -428.24,416.14 -1034.84,109.65 0,0 -1991.13,-1003.3 -2133.06,-1820.58 -66.98,430.46 -173.09,1091.74 194.16,1486.96 0,0 872.51,979.59 2302.08,1487.62 0,0 829.67,409.19 1648.74,-186.94l3192.93 -1341.47 4.41 -4227.09z"/>
  <path class="fil5" d="M5376.83 11006.78c-856.12,623.04 -1723.32,195.37 -1723.32,195.37 -1494.19,-531.01 -2406.18,-1554.91 -2406.18,-1554.91 -80.27,-86.43 -138.7,-185.1 -180.59,-291.11 -50.64,404 -62.08,895.14 233.85,1213.56 0,0 872.51,979.59 2302.08,1487.62 0,0 829.67,409.19 1648.74,-186.94l3192.93 -1341.47 0.84 -811.28 -3068.35 1289.16z"/>
  <path class="fil6" d="M8253.98 6664.51c-55.88,30.12 -88.2,49.17 -88.2,49.17 -718.5,331.19 -1190.55,1021.47 -1207.45,1047.75l-1150.58 1790.74 2446.23 -1003.58 0 -1884.08z"/>
  <path class="fil7" d="M8137.1 8441.98l0 -1569.9c-701.81,323.5 -1099.25,940.4 -1099.25,940.4l-922.38 1435.59 2021.63 -806.09z"/>
  <path class="fil8" d="M6115.47 9248.07l922.38 -1435.59c0,0 93.31,-144.46 268.78,-330.16 23.99,90.87 69.11,173.07 145.24,233.57 90.06,71.58 206.34,92.92 319.75,92.92 28.79,0 57.4,-1.37 85.34,-3.67 95.22,-7.76 188.63,-29.17 280.14,-57.89l0 694.73 -2021.63 806.09z"/>
  <path class="fil9" d="M4181.55 11735.23c-18.91,0 -40.61,-0.03 -64.88,-0.14 -48.75,-3.25 -108.59,-5.93 -176.78,-12.21 -67.87,-7.97 -144.99,-15.84 -227.68,-32.77 -20.71,-3.82 -41.87,-7.69 -63.5,-11.64 -21.38,-4.94 -43.14,-9.98 -65.33,-15.11 -44.38,-10.04 -90.19,-20.92 -136.49,-34.99 -46.44,-13.45 -94.58,-26.25 -142.49,-43.14 -48.23,-15.99 -97.57,-32.25 -146.56,-52 -49.33,-18.81 -99.49,-38 -149.1,-60.12 -24.94,-10.69 -50.09,-21.48 -75.35,-32.31 -24.77,-11.82 -49.66,-23.71 -74.69,-35.63 -100.21,-47.38 -199.29,-100.97 -297.27,-156.28 -48.71,-28.05 -96.47,-57.93 -144.35,-86.89 -46.92,-30.62 -94.47,-59.87 -140.08,-91.12 -45.89,-30.98 -91.36,-61.7 -134.87,-94.05 -44.14,-31.47 -86.92,-63.72 -128.75,-95.71 -83.92,-63.54 -162.29,-128.48 -235.57,-191.17 -73.24,-62.73 -140.77,-123.97 -201.68,-181.97 -61.32,-57.57 -115.55,-112.36 -162.74,-161.67 -47.41,-49.15 -87.72,-92.96 -120.54,-129.3 -65.43,-72.92 -99.74,-117.19 -99.74,-117.19 0,0 38.99,40.11 109.62,107.67 70.21,67.91 173.49,161.82 300.55,270.37 63.46,54.32 133.53,111.62 208.08,171.48 74.93,59.45 155.17,120.51 239.23,182.04 83.85,61.91 173.15,122.13 264.1,182.77 45.34,30.55 92.47,59.02 138.97,88.94 47.51,28.25 94.81,57.29 143.05,84.73 96.14,55.21 193.4,108.76 291.73,156.11 24.53,11.99 48.92,23.92 73.24,35.8 24.6,11.19 49.06,22.33 73.41,33.41 48.38,22.9 97.26,42.83 145.42,62.44 47.72,20.68 96.05,37.15 142.84,54.92 46.57,18.39 93.36,32.72 138.63,47.6 45.06,15.7 89.86,27.55 133.04,39.76 21.59,6.13 42.79,12.21 63.6,18.16 21.1,4.98 41.77,9.85 62.02,14.65 80.82,20.29 156.07,33.51 222.71,46.32 66.82,10.96 125.52,17.74 173.88,24.44 97.58,7.91 153.25,13.41 153.25,13.41 0,0 -31.64,0.39 -88.93,0.39z"/>
  <path class="fil9" d="M4133.85 11905.13c-18.91,0 -40.57,-0.05 -64.84,-0.14 -48.86,-3.25 -108.59,-5.93 -176.81,-12.21 -67.88,-7.97 -144.92,-15.84 -227.65,-32.77 -20.74,-3.82 -41.91,-7.69 -63.54,-11.65 -21.34,-4.93 -43.1,-9.97 -65.29,-15.1 -44.39,-10.05 -90.21,-20.92 -136.51,-34.99 -46.44,-13.45 -94.61,-26.25 -142.49,-43.15 -48.23,-15.98 -97.57,-32.24 -146.56,-51.96 -49.33,-18.84 -99.49,-38.04 -149.1,-60.15 -25.01,-10.68 -50.09,-21.49 -75.35,-32.32 -24.76,-11.81 -49.64,-23.7 -74.65,-35.62 -100.25,-47.38 -199.33,-100.97 -297.31,-156.28 -48.79,-28.05 -96.42,-57.93 -144.35,-86.93 -46.92,-30.58 -94.47,-59.83 -140.15,-91.09 -45.82,-31 -91.29,-61.7 -134.81,-94.05 -44.13,-31.46 -86.91,-63.71 -128.7,-95.7 -83.96,-63.58 -162.34,-128.52 -235.61,-191.17 -73.25,-62.73 -140.77,-123.97 -201.68,-182 -61.32,-57.54 -115.55,-112.33 -162.74,-161.65 -47.41,-49.14 -87.72,-92.95 -120.58,-129.29 -65.39,-72.95 -99.7,-117.19 -99.7,-117.19 0,0 38.99,40.11 109.62,107.63 70.21,67.91 173.49,161.82 300.48,270.37 63.53,54.36 133.6,111.65 208.15,171.52 74.94,59.44 155.17,120.47 239.23,182 83.85,61.95 173.15,122.17 264.1,182.81 45.34,30.55 92.47,59.02 138.98,88.9 47.51,28.29 94.81,57.32 143,84.77 96.18,55.25 193.44,108.76 291.77,156.1 24.53,12 48.92,23.92 73.24,35.81 24.6,11.18 49.06,22.33 73.38,33.41 48.4,22.9 97.29,42.83 145.45,62.43 47.68,20.69 96.05,37.16 142.84,54.93 46.57,18.38 93.36,32.68 138.63,47.6 45.06,15.74 89.85,27.55 133.06,39.76 21.55,6.13 42.79,12.21 63.57,18.13 21.09,5.01 41.77,9.88 62.02,14.68 80.85,20.28 156.06,33.54 222.7,46.31 66.82,10.97 125.52,17.75 173.92,24.45 97.55,7.91 153.22,13.41 153.22,13.41 0,0 -31.65,0.39 -88.94,0.39z"/>
  <path class="fil3" d="M4509.63 11213.05l-117.62 83.08c0,0 -460.87,447.89 -1113.86,117.96 0,0 -1757.9,-880.25 -2173.93,-1673.15 -32.04,-265.47 -11.5,-512.66 17.43,-698.5 141.87,817.28 2133,1820.54 2133,1820.54 606.68,306.5 1034.92,-109.6 1034.92,-109.6l220.06 -155.44c0,0 321.17,12.07 0,615.11z"/>
  <path class="fil10" d="M1513.22 9703.16c-201.19,-213.15 -353.19,-439.78 -391.57,-660.72 -28.93,185.84 -49.47,433.03 -17.43,698.5 93.23,177.66 239.02,354.26 409,521.41l0 -559.19z"/>
  <path class="fil10" d="M4508.25 10596.25l-219.6 156.1c0,0 -427.04,417.41 -1034.62,112.75 0,0 -2.34,-1.3 -5.92,-3.17l1.65 538.41c18.81,10.16 29.42,15.8 29.42,15.8 653.94,327.95 1113.54,-121.36 1113.54,-121.36l117.4 -83.43c319.27,-603.99 -1.87,-615.1 -1.87,-615.1z"/>
  <path class="fil1" d="M4586.82 10626.76c37.67,79.8 34.85,233.23 -121.36,528.61l-117.33 83.39c0,0 -452.62,441.96 -1098.44,128.41l0.07 33.17c18.81,10.16 29.42,15.8 29.42,15.8 653.94,327.95 1113.54,-121.36 1113.54,-121.36l117.4 -83.43c205.81,-389.29 145.59,-532.13 76.7,-584.59z"/>
  <path class="fil11" d="M1655.99 9844.73l0 550.93c372.07,331.58 1110.49,721.5 1378.66,880.25l0 -537.6c-265.41,-156.88 -1017.06,-555.13 -1378.66,-893.58z"/>
  <path class="fil12" d="M1709.46 10014.45c0,0 840.53,606.67 1230.79,794.49l0 54.04c0,0 -802.5,-396.02 -1230.79,-800.7l0 -47.83z"/>
  <path class="fil12" d="M1709.46 10104.62c0,0 840.53,606.71 1230.79,794.52l0 54.01c0,0 -802.5,-396.02 -1230.79,-800.7l0 -47.83z"/>
  <path class="fil12" d="M1709.46 10194.82c0,0 840.53,606.64 1230.79,794.49l0 54.01c0,0 -802.5,-395.99 -1230.79,-800.7l0 -47.8z"/>
  <path class="fil12" d="M1709.46 10284.99c0,0 840.53,606.64 1230.79,794.53l0 53.97c0,0 -802.5,-396.02 -1230.79,-800.7l0 -47.8z"/>
  <path class="fil1" d="M1137.85 9698.54c-25.57,-212.41 -17.37,-412.58 1.65,-579.58 -7.3,-25.51 -13.37,-51.09 -17.85,-76.52 -28.93,185.84 -49.47,433.03 -17.43,698.5 93.23,177.66 239.02,354.26 409,521.41l0 -76.31c-155.44,-157.06 -288.42,-321.73 -375.37,-487.5z"/>
  <path class="fil3" d="M2315.17 7658.39l-556.65 757.13c0,0 -584.29,653.7 22.39,1217.79l1253.74 733.6c0,0 596.21,384.07 1025.75,71.82l1508.94 -1030.85 -3254.17 -1749.49z"/>
  <path class="fil7" d="M3576.64 6122.39c0,0 939.2,1003.69 3095.83,1612.2l-1103.13 1673.29c0,0 -2507.89,-236.18 -3254.17,-1749.49l1261.47 -1536z"/>
  <path class="fil13" d="M2315.17 7658.39l918.74 -1151.82c-7,18.98 -13.66,38.13 -19.94,57.39l-898.8 1094.43z"/>
  <path class="fil7" d="M2315.17 7658.39l0 0 898.8 -1094.43c0,0.04 0,0 0,0.04l-898.8 1094.39z"/>
  <path class="fil8" d="M5453.66 9393.91c-501.05,-68.05 -2488.32,-417.12 -3138.49,-1735.52l0 0 898.8 -1094.39c-129.44,396.38 -107.55,846.67 90.08,1209.18 198.72,364.46 568.04,588.68 952.07,715.19 307.1,101.17 643.68,151.41 972.19,151.41 82.12,0 163.76,-3.14 244.3,-9.42 205.56,-16.02 408.05,-62.48 593.76,-147.07 -10.55,15.59 -21.13,31.18 -31.72,46.78l-179.17 264.83 -178.54 265.25 -177.06 266.24c-15.03,22.72 -30.55,45.16 -46.22,67.52z"/>
  <polygon class="fil2" points="1913.96,10773.38 1913.96,11211.53 2707.98,11728.62 2707.98,11251.99 "/>
  <path class="fil14" d="M6659.14 10468.01c-85.66,-189.93 -208.14,-327.06 -333.48,-426.08 -221.16,-174.52 -451.87,-229.09 -502.15,-239.25 -6.7,-1.38 -10.01,-1.91 -10.01,-1.91l-4.94 -0.85 -3.53 -3.45c-52.74,-51.61 -72.46,-98.89 -72.43,-139.46 0,-40.57 19.44,-71.68 37.93,-92.07 18.62,-20.46 36.76,-31.01 37.6,-31.57l0.04 0 5.54 9.52 -5.96 9.28 9.13 -3.78 7.13 12.21 -0.42 0.25 -1.8 1.13 -6.81 4.83c-5.72,4.34 -13.48,10.86 -21.1,19.3 -15.38,17 -29.81,40.85 -29.77,70.9 0.03,29.28 13.44,67.07 59.62,113.6 35.7,6.81 253.57,53.06 475.96,212.41 144.22,103.15 290.13,254.52 388.45,472.79l-29 12.2z"/>
  <path class="fil9" d="M6776.44 11025.9l-0.74 -23.07c-7.2,-213.58 -51.12,-389.65 -116.56,-534.82l29 -12.2c64.66,143.58 108.72,316.09 118.14,522.92l1631.95 -704.28 6.11 14.11 0 17.53 -1667.9 719.81z"/>
  <polygon class="fil15" points="5807.75,9552.17 5813.71,9542.89 5816.88,9548.39 "/>
  <path class="fil1" d="M5964.41 9219.99c-125.87,51.51 -192.44,44.1 -192.44,44.1 -129.68,186.87 43.01,322.93 43.01,322.93 116.98,-59.33 220.27,-2.61 220.27,-2.61 220.06,173.5 554.18,-32.63 554.18,-32.63 344.73,-165.88 219.32,-473.32 219.32,-473.32 -42.3,-193.04 -209.41,-190.71 -209.41,-190.71 -245.88,-11.86 -476.71,140.05 -476.71,140.05 0,0 -149.61,76.38 -158.22,192.19z"/>
  <path class="fil2" d="M3652.56 6357.24c0,0 7.3,9.73 21.66,26.91 13.9,17.4 36.19,41.77 64.27,72.18 14.32,14.89 30.24,31.4 47.56,49.36 18.45,16.96 37.32,36.08 57.85,56.02 19.97,20.39 44.24,39.58 67.98,61.06 23.92,21.35 48.47,44.28 76.38,65.94 27.2,22.12 55.53,45.19 84.91,69.03 30.27,22.65 61.6,46.08 93.81,70.14 31.43,24.73 65.61,47.97 100.54,71.58 35.13,23.35 69.46,49.1 106.11,72.91 37.04,23.25 74.76,46.92 112.93,70.88 18.98,12.03 38.06,24.13 57.25,36.33 19.76,11.33 39.66,22.69 59.59,34.12 80.01,45.36 159.52,94.15 243.8,135.15 41.31,21.9 82.66,43.81 123.79,65.61 41.56,21.21 84.07,40.26 125.56,60.4 41.73,19.68 82.97,39.65 123.61,59.72 40.14,21.07 82.48,36.09 122.48,54.76 81.11,34.43 158.08,71.93 233.19,102.62 75.35,29.95 146.26,59.86 211.81,87.7 65.37,28.36 126.19,52.28 180.37,72.92 54.19,20.57 101.04,40.32 139.81,56.23 77.47,32.03 121.46,52.46 121.46,52.46 0,0 -47.73,-5.29 -130.78,-18.24 -41.55,-6.6 -92.11,-14.15 -149.71,-24.94 -28.86,-5.15 -59.59,-10.65 -92.01,-16.48 -32.35,-6.24 -65.44,-15.98 -100.5,-24.41 -69.93,-17.5 -145.88,-36.72 -225.75,-58.74 -79.69,-22.68 -161.68,-53.05 -247.33,-82.47 -86.08,-28.23 -172.01,-65.69 -259.29,-104 -43.36,-19.58 -88.2,-37.01 -131.23,-58.92 -42.87,-22.15 -86.01,-44.41 -129.09,-66.64 -42.44,-23.49 -86.6,-43.71 -127.45,-69.81 -41.24,-25.33 -82.34,-50.56 -123.05,-75.6 -20.32,-12.6 -40.54,-25.19 -60.65,-37.71 -19.36,-13.8 -38.59,-27.56 -57.68,-41.17 -38.06,-27.45 -75.63,-54.58 -112.64,-81.25 -36.12,-27.87 -70.48,-56.94 -104.17,-85.09 -33.62,-28.29 -67.03,-55.17 -96.63,-85.09 -30.09,-29.07 -59.34,-57.32 -87.66,-84.66 -26.5,-29.14 -52.11,-57.33 -76.73,-84.39 -24.8,-26.67 -47.35,-53.45 -67.45,-80.08 -20.04,-26.71 -40.43,-50.52 -56.91,-75.35 -16.75,-24.52 -32.81,-47.03 -46.63,-68.51 -13.09,-22.05 -25.12,-42.27 -35.99,-60.57 -11.07,-17.93 -19.33,-35.21 -26.67,-49.96 -7.34,-14.67 -13.47,-27.23 -17.85,-37.82 -9.14,-20.74 -12.87,-32.13 -12.87,-32.13z"/>
  <path class="fil2" d="M7567.51 7236.68c0,0 1.97,11.43 7.79,30.48 5.44,19.12 15,45.96 30.8,75.35 6.99,15.2 18.03,29.6 27.94,45.51 12.35,14.21 24.06,30.16 39.83,43 13.86,15.03 32.95,24.38 49.92,36.8 9.42,4.76 19.36,8.82 29.07,13.37l14.64 6.66c5.04,1.73 10.44,2.79 15.66,4.24l31.29 8.75c10.34,3.24 21.49,2.96 32.1,4.62 10.76,1.34 21.35,2.64 31.9,3.95 10.54,0.88 21.23,0 31.64,0.07 20.74,-1.06 41.13,1.45 60.22,-2.08 19.3,-2.08 37.46,-4.09 54.26,-5.93 17.03,-1.06 32.06,-5.43 45.86,-7.48 13.61,-2.54 25.54,-4.76 35.38,-6.56 19.79,-3.53 31.29,-5.11 31.29,-5.11 0,0 -10.55,4.58 -29.31,11.78 -9.46,3.53 -20.92,7.83 -34.15,12.77 -13.27,4.55 -27.84,11.68 -44.98,14.67 -17.01,3.81 -35.49,7.94 -55,12.28 -19.4,5.4 -40.96,5.15 -62.9,7.09 -11.01,0.53 -22.19,2.01 -33.62,1.69 -11.39,-0.95 -22.97,-1.94 -34.64,-2.92 -11.57,-1.59 -23.57,-1.2 -35.14,-4.45l-34.89 -9.1c-5.71,-1.73 -11.64,-3.03 -17.25,-5.12l-16.44 -7.76c-10.79,-5.25 -21.87,-10.09 -32.31,-15.69 -19.44,-13.97 -39.48,-26.64 -54.37,-44 -17,-15.2 -28.25,-34.15 -40.18,-50.83 -9.56,-18.13 -19.12,-34.96 -24.45,-51.93 -6.84,-16.33 -10.09,-32.28 -13.44,-46.07 -2.47,-14.04 -4.72,-26.14 -5.5,-36.27 -2.19,-20.18 -1.02,-31.78 -1.02,-31.78z"/>
  <path class="fil3" d="M5084.06 5004.37c-686.93,225.35 -1157.4,717.02 -1351.42,938 1057.27,1130.33 2948.3,1459.83 3182.76,1509.22 0.49,-0.28 826.7,-801.37 1565.45,-1172.21l-3396.79 -1275.01z"/>
  <path class="fil1" d="M5005.39 12046.37c0,0 -206.38,-1136.4 678.18,-1607.18 0,0 868.78,-498.05 988.9,533.01l-1667.08 1074.17z"/>
  <path class="fil16" d="M6494.71 11718.83c-207.08,520.16 -651.55,831.67 -993.11,695.85 -341.52,-135.82 -450.53,-667.63 -243.69,-1187.77 206.97,-520.17 651.47,-831.67 992.92,-695.82 341.63,135.82 450.64,667.6 243.88,1187.74z"/>
  <path class="fil1" d="M6199.51 11625.23c-108.17,271.92 -340.65,434.84 -519.08,363.79 -178.61,-70.98 -235.73,-349 -127.43,-620.93 108.2,-271.95 340.54,-434.8 519.12,-363.75 178.61,70.98 235.58,348.97 127.39,620.89z"/>
  <path class="fil4" d="M6180.24 11565.89c-95.63,240.39 -301.06,384.32 -458.89,321.6 -157.73,-62.76 -208.24,-308.57 -112.68,-548.93 95.64,-240.38 301.06,-384.35 458.97,-321.55 157.72,62.76 208.21,308.5 112.6,548.88z"/>
  <path class="fil4" d="M6180.24 11565.89c-95.63,240.39 -301.06,384.32 -458.89,321.6 -157.73,-62.76 -208.24,-308.57 -112.68,-548.93 95.64,-240.38 301.06,-384.35 458.97,-321.55 157.72,62.76 208.21,308.5 112.6,548.88z"/>
  <path class="fil17" d="M6077.55 11513.93c-63.92,160.8 -195.72,259.29 -294.25,220.14 -98.43,-39.21 -126.37,-201.3 -62.51,-361.99 63.95,-160.8 195.61,-259.36 294.14,-220.17 98.53,39.19 126.58,201.22 62.62,362.02z"/>
  <path class="fil4" d="M5927.16 11087.99c0,18.06 -14.53,32.73 -32.67,32.73 -18.06,0 -32.73,-14.67 -32.73,-32.73 0,-18.1 14.67,-32.71 32.73,-32.71 18.14,0 32.67,14.61 32.67,32.71z"/>
  <path class="fil2" d="M5900.07 11089.33c6.28,5.71 13.72,7.19 20.04,4.69 1.51,-3.21 2.36,-6.74 2.36,-10.51 0,-13.3 -10.55,-24.2 -23.85,-24.66 -6.53,9.1 -7.51,22.26 1.45,30.48z"/>
  <path class="fil3" d="M5893.12 11096.95c-10.27,-12.24 -10.55,-28.79 -2.75,-41.38 -16.06,2.01 -28.61,15.73 -28.61,32.42 0,18.06 14.67,32.73 32.73,32.73 10.94,0 20.61,-5.43 26.6,-13.79 -9.73,2.19 -20.32,-0.74 -27.97,-9.98z"/>
  <path class="fil4" d="M6081.82 11077.05c0,18.1 -14.61,32.74 -32.63,32.74 -18.14,0 -32.88,-14.64 -32.88,-32.74 0,-18.06 14.74,-32.7 32.88,-32.7 18.02,0 32.63,14.64 32.63,32.7z"/>
  <path class="fil2" d="M6054.69 11078.39c6.28,5.75 13.72,7.23 20.11,4.69 1.52,-3.21 2.36,-6.74 2.36,-10.47 0,-13.34 -10.55,-24.21 -23.85,-24.63 -6.63,9 -7.51,22.19 1.38,30.41z"/>
  <path class="fil3" d="M6047.67 11086.01c-10.13,-12.24 -10.34,-28.75 -2.65,-41.38 -16.22,2.01 -28.71,15.73 -28.71,32.42 0,18.1 14.74,32.74 32.88,32.74 10.86,0 20.74,-5.43 26.53,-13.8 -9.67,2.19 -20.36,-0.77 -28.05,-9.98z"/>
  <path class="fil4" d="M6186.13 11203.45c0,18.06 -14.67,32.7 -32.7,32.7 -18.06,0 -32.81,-14.64 -32.81,-32.7 0,-18.06 14.75,-32.74 32.81,-32.74 18.03,0 32.7,14.68 32.7,32.74z"/>
  <path class="fil2" d="M6159.01 11204.76c6.2,5.78 13.72,7.26 20.1,4.69 1.52,-3.18 2.37,-6.67 2.37,-10.41 0,-13.37 -10.69,-24.2 -23.92,-24.66 -6.56,9.03 -7.51,22.19 1.45,30.38z"/>
  <path class="fil3" d="M6152.06 11212.41c-10.2,-12.24 -10.48,-28.75 -2.76,-41.42 -16.12,2.05 -28.68,15.77 -28.68,32.46 0,18.06 14.75,32.7 32.81,32.7 11.01,0 20.75,-5.43 26.6,-13.76 -9.66,2.23 -20.35,-0.74 -27.97,-9.98z"/>
  <path class="fil4" d="M6203.1 11395.11c0,18.07 -14.67,32.71 -32.73,32.71 -18,0 -32.67,-14.64 -32.67,-32.71 0,-18.09 14.67,-32.73 32.67,-32.73 18.06,0 32.73,14.64 32.73,32.73z"/>
  <path class="fil2" d="M6176.01 11396.38c6.28,5.75 13.65,7.27 20,4.73 1.59,-3.17 2.4,-6.7 2.4,-10.44 0,-13.37 -10.55,-24.24 -23.85,-24.69 -6.59,9.06 -7.62,22.26 1.45,30.4z"/>
  <path class="fil3" d="M6168.85 11404.08c-10.13,-12.32 -10.48,-28.83 -2.68,-41.42 -15.98,2.05 -28.47,15.73 -28.47,32.45 0,18.07 14.67,32.71 32.67,32.71 11.04,0 20.74,-5.44 26.67,-13.8 -9.71,2.23 -20.32,-0.7 -28.19,-9.94z"/>
  <path class="fil4" d="M6153.43 11550.31c0,18.12 -14.6,32.73 -32.74,32.73 -18.06,0 -32.8,-14.61 -32.8,-32.73 0,-18.04 14.74,-32.68 32.8,-32.68 18.14,0 32.74,14.64 32.74,32.68z"/>
  <path class="fil2" d="M6126.27 11551.64c6.28,5.82 13.72,7.27 20.14,4.69 1.48,-3.17 2.33,-6.66 2.33,-10.41 0,-13.36 -10.62,-24.24 -23.99,-24.69 -6.45,9.07 -7.37,22.26 1.52,30.41z"/>
  <path class="fil3" d="M6119.25 11559.29c-10.13,-12.23 -10.41,-28.79 -2.68,-41.41 -16.2,2.04 -28.68,15.81 -28.68,32.43 0,18.12 14.74,32.73 32.8,32.73 10.98,0 20.82,-5.39 26.6,-13.73 -9.7,2.19 -20.39,-0.73 -28.04,-10.02z"/>
  <path class="fil4" d="M6071.38 11699c0,18.09 -14.61,32.7 -32.67,32.7 -18.27,0 -32.81,-14.61 -32.81,-32.7 0,-18.07 14.54,-32.71 32.81,-32.71 18.06,0 32.67,14.64 32.67,32.71z"/>
  <path class="fil2" d="M6044.28 11700.38c6.21,5.67 13.66,7.15 20.04,4.65 1.52,-3.21 2.36,-6.73 2.36,-10.44 0,-13.37 -10.61,-24.2 -23.77,-24.65 -6.71,9.02 -7.66,22.21 1.37,30.44z"/>
  <path class="fil3" d="M6037.19 11708c-10.19,-12.28 -10.4,-28.79 -2.68,-41.45 -16.19,2.01 -28.61,15.8 -28.61,32.45 0,18.09 14.54,32.7 32.81,32.7 10.93,0 20.6,-5.4 26.53,-13.75 -9.81,2.21 -20.25,-0.75 -28.05,-9.95z"/>
  <path class="fil4" d="M5927.16 11805.19c0,18.05 -14.53,32.73 -32.67,32.73 -18.06,0 -32.73,-14.68 -32.73,-32.73 0,-18.04 14.67,-32.74 32.73,-32.74 18.14,0 32.67,14.7 32.67,32.74z"/>
  <path class="fil2" d="M5900.07 11806.49c6.28,5.78 13.72,7.23 20.04,4.72 1.51,-3.17 2.36,-6.76 2.36,-10.43 0,-13.38 -10.55,-24.24 -23.85,-24.69 -6.53,9.05 -7.51,22.21 1.45,30.4z"/>
  <path class="fil3" d="M5893.12 11814.15c-10.27,-12.25 -10.55,-28.72 -2.75,-41.43 -16.06,2.08 -28.61,15.78 -28.61,32.47 0,18.05 14.67,32.73 32.73,32.73 10.94,0 20.61,-5.5 26.6,-13.8 -9.73,2.24 -20.32,-0.7 -27.97,-9.97z"/>
  <path class="fil4" d="M5780.12 11816.16c0,18.05 -14.67,32.66 -32.66,32.66 -18.07,0 -32.88,-14.61 -32.88,-32.66 0,-18.07 14.81,-32.74 32.88,-32.74 17.99,0 32.66,14.67 32.66,32.74z"/>
  <path class="fil2" d="M5752.96 11817.43c6.28,5.74 13.86,7.23 20.18,4.68 1.44,-3.17 2.36,-6.7 2.36,-10.36 0,-13.41 -10.62,-24.28 -23.92,-24.74 -6.66,9.07 -7.51,22.23 1.38,30.42z"/>
  <path class="fil3" d="M5745.94 11825.07c-10.13,-12.23 -10.34,-28.74 -2.68,-41.41 -16.12,2.04 -28.68,15.77 -28.68,32.5 0,18.05 14.81,32.66 32.88,32.66 10.93,0 20.74,-5.43 26.6,-13.76 -9.74,2.22 -20.4,-0.74 -28.12,-9.99z"/>
  <path class="fil4" d="M5674.01 11709.9c0,18.06 -14.61,32.74 -32.74,32.74 -18.06,0 -32.81,-14.68 -32.81,-32.74 0,-18.03 14.75,-32.74 32.81,-32.74 18.13,0 32.74,14.71 32.74,32.74z"/>
  <path class="fil2" d="M5646.84 11711.24c6.28,5.76 13.8,7.2 20.22,4.69 1.37,-3.18 2.33,-6.71 2.33,-10.44 0,-13.34 -10.69,-24.2 -23.99,-24.63 -6.67,9 -7.45,22.19 1.44,30.38z"/>
  <path class="fil3" d="M5639.75 11718.86c-10.12,-12.21 -10.26,-28.72 -2.54,-41.39 -16.19,2.02 -28.75,15.78 -28.75,32.43 0,18.06 14.75,32.74 32.81,32.74 10.97,0 20.67,-5.44 26.67,-13.77 -9.7,2.24 -20.46,-0.73 -28.19,-10.01z"/>
  <path class="fil4" d="M5645.96 11532.35c0,18.05 -14.67,32.7 -32.67,32.7 -18.09,0 -32.77,-14.65 -32.77,-32.7 0,-18.11 14.68,-32.74 32.77,-32.74 18,0 32.67,14.63 32.67,32.74z"/>
  <path class="fil2" d="M5618.8 11533.65c6.28,5.76 13.86,7.23 20.14,4.65 1.45,-3.14 2.33,-6.66 2.33,-10.4 0,-13.34 -10.55,-24.24 -23.92,-24.69 -6.6,9.06 -7.44,22.25 1.45,30.44z"/>
  <path class="fil3" d="M5611.78 11541.31c-10.13,-12.28 -10.27,-28.79 -2.68,-41.39 -16.13,2.02 -28.58,15.7 -28.58,32.43 0,18.05 14.68,32.7 32.77,32.7 10.98,0 20.68,-5.4 26.6,-13.76 -9.7,2.21 -20.39,-0.75 -28.11,-9.98z"/>
  <path class="fil4" d="M5693.3 11355.14c0,18.07 -14.67,32.71 -32.73,32.71 -18.14,0 -32.74,-14.64 -32.74,-32.71 0,-18.06 14.6,-32.73 32.74,-32.73 18.06,0 32.73,14.67 32.73,32.73z"/>
  <path class="fil2" d="M5666.14 11356.49c6.14,5.75 13.72,7.23 20.07,4.69 1.45,-3.21 2.26,-6.71 2.26,-10.44 0,-13.34 -10.55,-24.21 -23.71,-24.66 -6.59,9.03 -7.58,22.22 1.38,30.41z"/>
  <path class="fil3" d="M5659.05 11364.11c-10.2,-12.25 -10.34,-28.76 -2.68,-41.42 -16.19,2.05 -28.54,15.8 -28.54,32.45 0,18.07 14.6,32.71 32.74,32.71 10.97,0 20.67,-5.4 26.6,-13.73 -9.85,2.19 -20.39,-0.74 -28.12,-10.01z"/>
  <path class="fil4" d="M5783.16 11196.22c0,18.06 -14.61,32.74 -32.74,32.74 -17.99,0 -32.67,-14.68 -32.67,-32.74 0,-18.06 14.68,-32.7 32.67,-32.7 18.13,0 32.74,14.64 32.74,32.7z"/>
  <path class="fil2" d="M5756.06 11197.52c6.28,5.79 13.8,7.24 19.97,4.73 1.59,-3.17 2.43,-6.7 2.43,-10.44 0,-13.34 -10.61,-24.2 -23.7,-24.66 -6.67,9.07 -7.66,22.22 1.3,30.37z"/>
  <path class="fil3" d="M5749.04 11205.18c-10.19,-12.24 -10.4,-28.75 -2.68,-41.42 -16.12,2.08 -28.61,15.81 -28.61,32.46 0,18.06 14.68,32.74 32.67,32.74 11.01,0 20.81,-5.44 26.6,-13.76 -9.53,2.22 -20.25,-0.78 -27.98,-10.02z"/>
  <path class="fil18" d="M6026.79 11493.75c-45.69,115.04 -140.02,185.6 -210.51,157.51 -70.55,-28 -90.59,-144.03 -44.84,-259.11 45.8,-115 140.13,-185.52 210.47,-157.48 70.49,28.05 90.7,144.04 44.88,259.08z"/>
  <polygon class="fil12" points="7812.3,8833.88 8210.76,8692.77 8210.76,8866.62 7812.3,8997.74 "/>
  <path class="fil5" d="M1118.35 8954c-6.78,61.66 11.78,122.13 33.83,178.29 22.74,56.55 53.67,109.26 87.09,159.92 33.21,50.87 71.31,98.49 110.82,144.67 40.1,45.76 81.9,90.03 125.93,132.12 43.2,42.86 88.61,83.53 134.56,123.5l69.94 58.85 71.86 56.69c48.23,37.32 97.36,73.62 147.04,109.04 49.92,35.17 99.36,70.91 150.55,104.35 50.37,34.5 101.93,67.38 153.65,99.95 51.19,33.3 104.18,64.06 156.41,95.81 52.02,32.1 105.9,61.38 158.75,92.15 52.5,31.32 106.73,60 159.99,90.06 53.19,30.16 107.65,58.35 161.71,87.14 53.88,29.03 108.32,57.15 163.16,84.56 54.71,27.51 108.94,55.98 164.33,82.33l165.27 80.61 -6.63 -2.96c5.14,1.62 18.09,5.79 28.5,8.26 10.82,2.99 22.53,5.29 33.94,7.76 23.25,4.44 46.95,8.29 71.04,10.72 48.05,5.19 97.11,7.09 146.29,4.98 98.42,-2.79 196.95,-20.01 293.23,-46.15 192.96,-52.67 375.49,-145.62 545.71,-257.88 83.85,-58.42 166.86,-118.67 244.3,-186.86 78.74,-66.29 153.21,-138.26 225.74,-212.2 72.11,-74.47 141.18,-152.15 208.77,-231.39 66.92,-79.8 132.61,-161.01 194.35,-245.46 31.54,-41.7 62.69,-83.75 92.11,-127.14 29.7,-43.15 60.43,-85.69 89.29,-129.33l177.06 -266.24 178.54 -265.25 179.17 -264.83c119.81,-176.32 237.84,-353.81 359.31,-529.03l362.37 -527.02 2.96 -4.33 1.45 -1.73c29.91,-35 59.3,-67.35 89.78,-99.98 30.38,-32.39 60.89,-64.59 91.9,-96.24 61.95,-63.43 125.13,-125.52 189.62,-186.23 64.42,-60.71 130.21,-120.01 197.34,-177.8 67.45,-57.43 136.74,-112.71 207.19,-166.33 35.21,-26.89 71.01,-53.03 107.14,-78.67 36.26,-25.44 72.56,-50.87 109.78,-74.9 36.83,-24.62 74.83,-47.55 112.89,-70.2 38.52,-21.98 76.62,-44.52 116.24,-64.49 39.02,-20.99 79.3,-39.62 119.27,-58.52 40.72,-17.54 81.32,-35.14 123.27,-49.39 20.63,-7.87 41.62,-14.78 62.86,-20.92 21.2,-6.28 42.02,-13.55 63.64,-18.24 21.52,-4.98 42.65,-11.04 64.28,-15.1l64.91 -11.57 -63.25 17.92c-20.96,6.14 -41.39,14.29 -61.99,21.27 -20.74,6.74 -40.67,15.98 -60.85,24.2 -20.18,8.08 -40.08,16.97 -59.59,26.71 -39.54,18.2 -77.71,39.23 -116.13,59.37 -37.68,21.8 -75.35,43.18 -111.8,66.92 -37.07,22.62 -72.56,47.8 -108.33,72.32 -35.35,25.26 -70.42,50.8 -104.85,77.15 -34.82,25.93 -68.61,53.27 -102.34,80.54 -33.62,27.52 -66.82,55.42 -99.48,84.07 -65.41,57.15 -129.3,115.96 -191.56,176.49 -62.69,60.12 -123.93,121.68 -183.9,184.51 -59.94,62.83 -118.5,126.93 -175.69,192.19 -28.68,32.53 -56.72,65.55 -84.63,98.64 -27.48,33.12 -55.6,66.95 -81.49,99.52l4.41 -6.04 -341.7 540.67c-113.24,180.66 -229.87,359.06 -344.7,538.62l-172.93 269 -173.46 268.6 -174.95 267.58c-29.59,45.51 -60.92,89.64 -91.26,134.52 -30.09,45.08 -62.02,88.93 -94.4,132.53 -63.4,88.06 -131.2,173.29 -200.52,257.29 -69.5,83.96 -143.37,164.6 -220.06,242.71 -77.33,77.61 -156.89,153.28 -241.76,223.66 -83.26,72.04 -173.39,136.73 -264.87,199.25 -93.49,60.15 -190.11,116.1 -291.68,163.69 -102.23,46.07 -208.56,84.56 -318.52,111.9 -109.96,27.09 -223.24,44.16 -338.17,44.8 -57.36,1.06 -115.07,-2.47 -172.75,-10.09 -28.86,-3.67 -57.74,-8.96 -86.63,-15.28 -14.58,-3.49 -28.92,-6.7 -43.73,-11.11 -7.3,-2.04 -14.67,-4.2 -22.32,-6.74 -8,-2.61 -14.13,-4.62 -25.38,-9.03l-3.84 -1.48 -2.82 -1.48 -164.33 -87.42c-54.99,-28.79 -108.87,-59.76 -163.2,-89.75 -54.4,-29.88 -108.41,-60.5 -161.95,-92.03 -53.68,-31.33 -107.63,-61.95 -160.54,-94.69 -52.92,-32.63 -106.66,-63.75 -158.82,-97.68 -52.02,-34.15 -104.94,-66.68 -156.1,-102.2 -51.41,-35.14 -103.39,-69.18 -153.76,-105.91 -50.77,-35.95 -101.42,-72.14 -150.89,-110.06 -50.16,-36.91 -98.9,-75.82 -147.54,-114.76 -48.21,-39.59 -95.75,-79.98 -142.33,-121.46l-69.38 -62.83 -67.39 -65.09c-44.24,-44.1 -87.85,-88.87 -129.16,-135.89 -41.44,-46.78 -80.58,-95.75 -117.78,-146.09 -36.66,-50.76 -71.66,-102.8 -101.5,-157.97 -30.24,-54.82 -55.74,-112.54 -73.52,-172.58 -16.8,-59.69 -29.42,-123.37 -16.39,-184.36z"/>
  <path class="fil1" d="M12277.41 9637.05l-570.09 -152.33c0,0 -101.21,-49.43 -131.94,-145.77 -76.55,-328.44 -134.41,-496.68 3.85,-844.3 206.93,-520.17 651.47,-831.68 992.96,-695.86 341.49,135.86 450.67,667.6 243.84,1187.73 -128.52,323.22 -308.33,545.72 -538.62,650.53z"/>
  <polygon class="fil4" points="8444.34,10528.9 8444.34,6315.93 13823.53,4235.45 13823.53,8371.07 "/>
  <path class="fil19" d="M10240.4 8145.11c-8.05,-61.63 -16.58,-138.32 -25.61,-230.11 -8.47,112.5 -13.51,194.27 -14.96,245.35l40.57 -15.24zm50.66 -386.04l85.51 538.69 -120.3 45.19 -9.59 -98.95 -42.09 15.8 -3.81 104.04 -121.74 45.72 41.84 -586.57 170.18 -63.92z"/>
  <path class="fil19" d="M10741.52 7589.77l18.27 563.99 -102.94 38.66 -12.42 -380.68 -28.64 396.13 -72.96 27.41 -55.28 -355.81 11.93 372.11 -102.94 38.67 -18.21 -563.99 152.3 -57.25c5.64,32.2 11.57,70.37 17.92,114.65l21.27 137.19 18.63 -273.54 153.07 -57.54z"/>
  <path class="fil19" d="M10916.46 7837.46l5.12 157.76c16.68,-6.92 27.13,-14.08 31.46,-21.63 4.38,-7.51 6.21,-22.64 5.47,-45.43l-1.66 -52.6c-0.84,-24.17 -3.38,-38 -7.58,-41.6 -4.27,-3.52 -15.17,-2.39 -32.81,3.5zm-6.81 -213.22l3.99 125.41c5.11,-2.12 9.03,-3.7 11.78,-4.8 11.57,-4.3 18.81,-10.62 21.77,-18.87 2.89,-8.29 3.88,-29.14 2.79,-62.62 -0.57,-17.6 -2.3,-29.46 -5.12,-35.59 -2.82,-6.11 -6.42,-9.32 -10.62,-9.6 -4.27,-0.28 -12.45,1.76 -24.59,6.07zm-120.86 -52.25l117.48 -44.13c37.07,-13.94 65.33,-20.92 84.63,-20.92 19.37,0.03 35.28,8.78 47.66,26.32 12.49,17.49 19.51,50.66 21.09,99.41 1.03,32.95 -2.32,57.47 -10.26,73.62 -7.87,16.09 -23.85,32.21 -48.09,48.37 27.42,-2.58 46.36,3.17 56.55,17.36 10.34,14.14 16.06,39.51 17.22,76.27l1.73 52.28c1.16,38.1 -1.38,67.66 -7.76,88.65 -6.42,20.96 -17.18,37.71 -32.21,50.17 -15.06,12.48 -46.29,27.65 -93.63,45.43l-136.13 51.19 -18.28 -564.02z"/>
  <path class="fil19" d="M11372.67 7352.6l12.21 376.94c1.38,42.72 1.16,73.17 -0.49,91.27 -1.73,18.2 -7.73,38.45 -18.14,60.81 -10.47,22.37 -24.44,41.6 -42.15,57.75 -17.64,16.2 -38.74,28.86 -63.19,38.07 -27.02,10.16 -51.04,13.51 -72.07,10.12 -21.09,-3.35 -37.08,-12.06 -47.8,-26.07 -10.83,-14.04 -17.5,-30.65 -20.07,-49.74 -2.47,-19.19 -4.77,-60.61 -6.81,-124.25l-10.83 -333.69 117.76 -44.24 13.65 422.88c0.81,24.62 2.4,39.97 4.76,46 2.33,6.03 6.81,7.87 13.37,5.4 7.41,-2.79 12.1,-8.4 13.97,-16.72 1.94,-8.33 2.4,-26.6 1.52,-54.72l-13.44 -415.57 117.75 -44.24z"/>
  <polygon class="fil19" points="11535.9,7291.25 11550.51,7742.38 11622.09,7715.47 11625.76,7828.32 11436.42,7899.47 11418.22,7335.49 "/>
  <path class="fil19" d="M11803.1 7557.88c-7.97,-61.63 -16.55,-138.32 -25.54,-230.15 -8.58,112.5 -13.51,194.31 -14.96,245.39l40.5 -15.24zm50.66 -386.08l85.58 538.73 -120.33 45.19 -9.56 -98.99 -42.16 15.84 -3.81 104 -121.67 45.75 41.8 -586.56 170.15 -63.96z"/>
  <path class="fil19" d="M12223.89 7281.3l-117.76 44.24 -3.1 -98.04c-0.95,-28.5 -2.82,-45.82 -5.57,-51.93 -2.69,-6.13 -8.33,-7.58 -16.97,-4.37 -9.7,3.63 -15.63,10.27 -17.96,19.83 -2.36,9.59 -3.1,28.64 -2.15,57.22l8.39 261.93c0.92,27.45 2.86,44.84 5.76,52.22 2.89,7.33 8.85,9.34 17.95,5.92 8.82,-3.28 14.36,-9.66 16.83,-19.05 2.4,-9.38 3.1,-29.56 2.12,-60.53l-2.26 -70.91 117.68 -44.24 0.75 21.98c1.87,58.42 -0.15,101.07 -6,127.95 -5.79,26.92 -19.76,53.83 -41.81,80.72 -22.04,26.84 -49.67,46.56 -82.83,59.02 -34.5,12.94 -63.11,15.83 -86.04,8.67 -22.9,-7.16 -38.38,-23.07 -46.53,-47.9 -8.12,-24.77 -13.16,-64.81 -14.92,-120.09l-5.33 -164.75c-1.31,-40.67 -1.17,-71.58 0.42,-92.74 1.59,-21.17 7.59,-43.25 18.13,-66.22 10.45,-22.96 25.33,-43.57 44.63,-61.77 19.37,-18.17 41.77,-32.03 67.31,-41.63 34.68,-13.02 63.54,-15.45 86.68,-7.26 23.03,8.25 38.59,23.53 46.46,45.75 7.87,22.3 12.66,59.69 14.39,112.43l1.73 53.55z"/>
  <polygon class="fil19" points="12258.15,7019.86 12454.43,6946.09 12458.1,7058.95 12379.54,7088.47 12382.99,7195.44 12456.51,7167.78 12460.01,7275.09 12386.42,7302.75 12390.44,7426.75 12476.83,7394.26 12480.47,7507.12 12276.38,7583.84 "/>
  <polygon class="fil5" points="8444.34,10099.82 13823.53,7957.22 13823.53,7526.62 8444.34,9653.91 "/>
  <polygon class="fil5" points="8444.34,7514.59 13823.53,5372 13823.53,4941.4 8444.34,7068.65 "/>
  <path class="fil16" d="M13217.45 8924.15c-207.04,520.17 -651.54,831.71 -993.06,695.89 -341.56,-135.85 -450.57,-667.66 -243.74,-1187.76 207.01,-520.21 651.48,-831.71 992.96,-695.86 341.6,135.86 450.61,667.6 243.84,1187.73z"/>
  <path class="fil1" d="M12922.29 8806.78c-108.2,271.93 -340.65,434.84 -519.12,363.79 -178.61,-70.98 -235.72,-349 -127.39,-620.93 108.17,-271.95 340.51,-434.79 519.08,-363.74 178.61,70.97 235.59,348.96 127.43,620.88z"/>
  <path class="fil4" d="M12902.99 8747.45c-95.64,240.38 -301.03,384.31 -458.89,321.59 -157.73,-62.76 -208.21,-308.58 -112.65,-548.92 95.64,-240.39 301.03,-384.35 458.97,-321.56 157.69,62.76 208.21,308.5 112.57,548.89z"/>
  <path class="fil4" d="M12902.99 8747.45c-95.64,240.38 -301.03,384.31 -458.89,321.59 -157.73,-62.76 -208.21,-308.58 -112.65,-548.92 95.64,-240.39 301.03,-384.35 458.97,-321.56 157.69,62.76 208.21,308.5 112.57,548.89z"/>
  <path class="fil17" d="M12800.33 8695.48c-63.96,160.8 -195.76,259.29 -294.29,220.14 -98.39,-39.2 -126.36,-201.3 -62.51,-361.99 63.96,-160.83 195.62,-259.36 294.15,-220.17 98.53,39.2 126.57,201.23 62.65,362.02z"/>
  <path class="fil4" d="M12649.91 8269.54c0,18.06 -14.54,32.74 -32.67,32.74 -18.03,0 -32.7,-14.68 -32.7,-32.74 0,-18.1 14.67,-32.7 32.7,-32.7 18.13,0 32.67,14.6 32.67,32.7z"/>
  <path class="fil2" d="M12622.85 8270.88c6.24,5.71 13.69,7.2 20.04,4.69 1.51,-3.21 2.32,-6.74 2.32,-10.51 0,-13.3 -10.54,-24.2 -23.84,-24.66 -6.53,9.07 -7.48,22.26 1.48,30.48z"/>
  <path class="fil3" d="M12615.86 8278.5c-10.26,-12.24 -10.55,-28.79 -2.75,-41.38 -16.05,2.01 -28.57,15.73 -28.57,32.42 0,18.06 14.67,32.74 32.7,32.74 10.97,0 20.6,-5.44 26.6,-13.83 -9.7,2.22 -20.32,-0.71 -27.98,-9.95z"/>
  <path class="fil4" d="M12804.6 8258.6c0,18.06 -14.61,32.71 -32.67,32.71 -18.13,0 -32.88,-14.65 -32.88,-32.71 0,-18.06 14.75,-32.7 32.88,-32.7 18.06,0 32.67,14.64 32.67,32.7z"/>
  <path class="fil2" d="M12777.43 8259.94c6.28,5.72 13.73,7.24 20.15,4.7 1.52,-3.22 2.33,-6.74 2.33,-10.48 0,-13.34 -10.55,-24.2 -23.85,-24.63 -6.6,9 -7.52,22.19 1.37,30.41z"/>
  <path class="fil3" d="M12770.41 8267.56c-10.12,-12.24 -10.33,-28.75 -2.61,-41.38 -16.26,2.01 -28.75,15.74 -28.75,32.42 0,18.06 14.75,32.71 32.88,32.71 10.9,0 20.74,-5.4 26.53,-13.76 -9.63,2.18 -20.32,-0.78 -28.05,-9.99z"/>
  <path class="fil4" d="M12908.92 8385c0,18.03 -14.68,32.71 -32.74,32.71 -18.06,0 -32.81,-14.68 -32.81,-32.71 0,-18.06 14.75,-32.73 32.81,-32.73 18.06,0 32.74,14.67 32.74,32.73z"/>
  <path class="fil2" d="M12881.75 8386.31c6.21,5.78 13.72,7.23 20.14,4.69 1.52,-3.17 2.33,-6.67 2.33,-10.41 0,-13.37 -10.69,-24.2 -23.92,-24.66 -6.52,9.04 -7.51,22.19 1.45,30.38z"/>
  <path class="fil3" d="M12874.8 8393.96c-10.19,-12.24 -10.48,-28.75 -2.75,-41.41 -16.12,2.04 -28.68,15.77 -28.68,32.45 0,18.03 14.75,32.71 32.81,32.71 11.04,0 20.74,-5.44 26.6,-13.76 -9.63,2.22 -20.32,-0.74 -27.98,-9.99z"/>
  <path class="fil4" d="M12925.85 8576.67c0,18.06 -14.68,32.7 -32.7,32.7 -18,0 -32.67,-14.64 -32.67,-32.7 0,-18.1 14.67,-32.74 32.67,-32.74 18.02,0 32.7,14.64 32.7,32.74z"/>
  <path class="fil2" d="M12898.79 8577.94c6.28,5.75 13.62,7.26 19.97,4.72 1.59,-3.21 2.43,-6.7 2.43,-10.44 0,-13.37 -10.55,-24.23 -23.85,-24.69 -6.63,9.06 -7.65,22.26 1.45,30.41z"/>
  <path class="fil3" d="M12891.63 8585.63c-10.13,-12.31 -10.48,-28.82 -2.72,-41.42 -15.98,2.05 -28.43,15.74 -28.43,32.46 0,18.06 14.67,32.7 32.67,32.7 11,0 20.74,-5.43 26.63,-13.79 -9.7,2.22 -20.32,-0.71 -28.15,-9.95z"/>
  <path class="fil4" d="M12876.18 8731.85c0,18.1 -14.61,32.74 -32.74,32.74 -18.03,0 -32.77,-14.64 -32.77,-32.74 0,-18.02 14.74,-32.66 32.77,-32.66 18.13,0 32.74,14.64 32.74,32.66z"/>
  <path class="fil2" d="M12849.05 8733.19c6.24,5.79 13.69,7.24 20.11,4.7 1.51,-3.18 2.33,-6.67 2.33,-10.41 0,-13.37 -10.59,-24.24 -23.96,-24.69 -6.49,9.06 -7.37,22.26 1.52,30.4z"/>
  <path class="fil3" d="M12841.99 8740.85c-10.12,-12.24 -10.4,-28.79 -2.68,-41.42 -16.19,2.05 -28.64,15.81 -28.64,32.42 0,18.1 14.74,32.74 32.77,32.74 10.97,0 20.81,-5.4 26.6,-13.72 -9.7,2.19 -20.39,-0.74 -28.05,-10.02z"/>
  <path class="fil4" d="M12794.12 8880.55c0,18.1 -14.6,32.7 -32.67,32.7 -18.23,0 -32.77,-14.6 -32.77,-32.7 0,-18.1 14.54,-32.7 32.77,-32.7 18.07,0 32.67,14.6 32.67,32.7z"/>
  <path class="fil2" d="M12767.03 8881.93c6.21,5.68 13.65,7.16 20.07,4.65 1.52,-3.21 2.33,-6.74 2.33,-10.44 0,-13.37 -10.62,-24.2 -23.78,-24.66 -6.67,9.03 -7.62,22.23 1.38,30.45z"/>
  <path class="fil3" d="M12759.94 8889.55c-10.2,-12.28 -10.41,-28.79 -2.68,-41.46 -16.2,2.02 -28.58,15.81 -28.58,32.46 0,18.1 14.54,32.7 32.77,32.7 10.98,0 20.61,-5.4 26.53,-13.76 -9.77,2.23 -20.25,-0.74 -28.04,-9.94z"/>
  <path class="fil4" d="M12649.91 8986.74c0,18.06 -14.54,32.73 -32.67,32.73 -18.03,0 -32.7,-14.67 -32.7,-32.73 0,-18.03 14.67,-32.74 32.7,-32.74 18.13,0 32.67,14.71 32.67,32.74z"/>
  <path class="fil2" d="M12622.85 8988.04c6.24,5.79 13.69,7.23 20.04,4.73 1.51,-3.18 2.32,-6.77 2.32,-10.44 0,-13.37 -10.54,-24.24 -23.84,-24.7 -6.53,9.07 -7.48,22.23 1.48,30.41z"/>
  <path class="fil3" d="M12615.86 8995.7c-10.26,-12.24 -10.55,-28.72 -2.75,-41.45 -16.05,2.11 -28.57,15.8 -28.57,32.49 0,18.06 14.67,32.73 32.7,32.73 10.97,0 20.6,-5.5 26.6,-13.79 -9.7,2.22 -20.32,-0.71 -27.98,-9.98z"/>
  <path class="fil4" d="M12502.87 8997.67c0,18.1 -14.68,32.7 -32.67,32.7 -18.03,0 -32.84,-14.6 -32.84,-32.7 0,-18.02 14.81,-32.7 32.84,-32.7 17.99,0 32.67,14.68 32.67,32.7z"/>
  <path class="fil2" d="M12475.74 8998.98c6.24,5.75 13.83,7.23 20.18,4.69 1.44,-3.18 2.33,-6.7 2.33,-10.37 0,-13.41 -10.62,-24.27 -23.89,-24.73 -6.7,9.06 -7.51,22.22 1.38,30.41z"/>
  <path class="fil3" d="M12468.68 9006.63c-10.12,-12.24 -10.33,-28.75 -2.68,-41.41 -16.12,2.04 -28.64,15.77 -28.64,32.45 0,18.1 14.81,32.7 32.84,32.7 10.97,0 20.74,-5.43 26.6,-13.75 -9.7,2.22 -20.39,-0.74 -28.12,-9.99z"/>
  <path class="fil4" d="M12396.75 8891.45c0,18.06 -14.6,32.7 -32.7,32.7 -18.06,0 -32.81,-14.64 -32.81,-32.7 0,-18.03 14.75,-32.74 32.81,-32.74 18.1,0 32.7,14.71 32.7,32.74z"/>
  <path class="fil2" d="M12369.62 8892.79c6.28,5.75 13.76,7.2 20.18,4.69 1.38,-3.17 2.33,-6.7 2.33,-10.44 0,-13.33 -10.65,-24.2 -23.95,-24.66 -6.71,9.03 -7.45,22.23 1.44,30.41z"/>
  <path class="fil3" d="M12362.53 8900.41c-10.16,-12.2 -10.26,-28.71 -2.57,-41.38 -16.19,2.01 -28.72,15.77 -28.72,32.42 0,18.06 14.75,32.7 32.81,32.7 10.94,0 20.67,-5.39 26.63,-13.72 -9.7,2.22 -20.46,-0.74 -28.15,-10.02z"/>
  <path class="fil4" d="M12368.71 8713.9c0,18.06 -14.68,32.7 -32.64,32.7 -18.13,0 -32.8,-14.64 -32.8,-32.7 0,-18.1 14.67,-32.74 32.8,-32.74 17.96,0 32.64,14.64 32.64,32.74z"/>
  <path class="fil2" d="M12341.58 8715.2c6.28,5.75 13.83,7.23 20.11,4.66 1.44,-3.14 2.36,-6.67 2.36,-10.41 0,-13.33 -10.55,-24.23 -23.92,-24.69 -6.63,9.06 -7.44,22.26 1.45,30.44z"/>
  <path class="fil3" d="M12334.56 8722.86c-10.13,-12.28 -10.27,-28.79 -2.72,-41.38 -16.12,2.01 -28.57,15.7 -28.57,32.42 0,18.06 14.67,32.7 32.8,32.7 10.94,0 20.68,-5.43 26.6,-13.76 -9.73,2.22 -20.42,-0.74 -28.11,-9.98z"/>
  <path class="fil4" d="M12416.05 8536.7c0,18.06 -14.68,32.7 -32.74,32.7 -18.1,0 -32.7,-14.64 -32.7,-32.7 0,-18.06 14.6,-32.74 32.7,-32.74 18.06,0 32.74,14.68 32.74,32.74z"/>
  <path class="fil2" d="M12388.92 8538.04c6.1,5.75 13.69,7.23 20.04,4.69 1.44,-3.21 2.26,-6.7 2.26,-10.44 0,-13.34 -10.52,-24.2 -23.68,-24.66 -6.63,9.03 -7.58,22.22 1.38,30.41z"/>
  <path class="fil3" d="M12381.79 8545.62c-10.19,-12.2 -10.3,-28.71 -2.68,-41.38 -16.19,2.05 -28.5,15.81 -28.5,32.46 0,18.06 14.6,32.7 32.7,32.7 10.97,0 20.67,-5.43 26.6,-13.72 -9.84,2.18 -20.39,-0.74 -28.12,-10.06z"/>
  <path class="fil4" d="M12505.9 8377.77c0,18.06 -14.6,32.74 -32.74,32.74 -17.95,0 -32.63,-14.68 -32.63,-32.74 0,-18.06 14.68,-32.74 32.63,-32.74 18.14,0 32.74,14.68 32.74,32.74z"/>
  <path class="fil2" d="M12478.81 8379.08c6.28,5.78 13.79,7.23 20,4.72 1.59,-3.17 2.4,-6.7 2.4,-10.44 0,-13.33 -10.62,-24.2 -23.71,-24.66 -6.66,9.07 -7.62,22.23 1.31,30.38z"/>
  <path class="fil3" d="M12471.79 8386.73c-10.2,-12.24 -10.41,-28.75 -2.68,-41.41 -16.12,2.08 -28.58,15.8 -28.58,32.45 0,18.06 14.68,32.74 32.63,32.74 11.05,0 20.82,-5.43 26.6,-13.76 -9.49,2.22 -20.25,-0.78 -27.97,-10.02z"/>
  <path class="fil18" d="M12749.53 8675.3c-45.68,115.04 -139.98,185.6 -210.47,157.52 -70.55,-28.01 -90.63,-144.04 -44.87,-259.12 45.83,-115 140.16,-185.52 210.5,-157.48 70.49,28.01 90.67,144.04 44.84,259.08z"/>
  <path class="fil17" d="M11040.07 7329.53c-296.89,0 -526.37,-241.3 -567.51,-622.8l96.63 -38.48c38.41,328.47 237.66,535.76 494.87,535.83 0.04,0 0.07,0 0.11,0l0 0 0 0c0.03,0 0.03,0 0.07,0 61.49,0 126.19,-11.85 192.9,-36.72 0.07,-0.04 0.18,-0.08 0.25,-0.11 0.45,-0.18 0.91,-0.32 1.37,-0.49 354.65,-133.25 633.63,-585.9 642.37,-1029.06l96.63 -38.49c-5.89,510.26 -326.64,1034.21 -735.05,1187.63 -76.94,28.93 -151.73,42.69 -222.64,42.69zm-531.95 -1077.03c100.26,-396.14 369.11,-750.96 693.07,-872.71 76.9,-28.92 151.69,-42.68 222.57,-42.68 219.81,0 402.66,132.22 499.49,355.74l-105.51 41.73c-88.23,-171.66 -239.19,-272.02 -418.15,-272.02 -61.95,0 -127.32,12.06 -194.56,37.32 -268.92,101.04 -494.38,385.87 -591.46,710.92l-105.45 41.7 0 0z"/>
  <path class="fil20" d="M10472.56 6706.73c-3,-27.87 -5.01,-56.51 -5.96,-85.83 -3.95,-123.01 10.94,-247.61 41.52,-368.4l105.45 -41.7c-4.59,15.45 -8.93,31.01 -12.95,46.6 0,0.07 -0.04,0.14 -0.04,0.21 -0.03,0.11 -0.07,0.21 -0.1,0.32 -0.11,0.35 -0.18,0.74 -0.28,1.09l0 0c-27.24,106.26 -40.61,215.97 -37.22,324.31l0 0.04c0,0.46 0,0.88 0.03,1.34l0 0c0.07,1.87 0.11,3.77 0.18,5.64 0.07,1.27 0.11,2.54 0.18,3.78 1.02,25.33 2.99,50.06 5.82,74.12l-96.63 38.48zm1428.57 -569.03c0.15,-7.34 0.22,-14.67 0.22,-22.01 0,-11.25 -0.18,-22.51 -0.53,-33.73l0 0c-0.07,-1.97 -0.14,-3.95 -0.21,-5.92 -5.01,-132.05 -34.54,-247.44 -82.87,-341.46l105.51 -41.73c43.54,100.44 69.64,219.32 73.95,352.88 0.56,17.78 0.74,35.63 0.56,53.48l-96.63 38.49z"/>
  <path class="fil19" d="M11900.82 6081.96c14.88,460.31 -272.52,945.94 -642.06,1084.8 -369.36,138.85 -680.86,-121.75 -695.75,-582.05 -14.88,-460.31 272.56,-946.01 642.02,-1084.83 369.4,-138.82 680.9,121.78 695.79,582.08z"/>
  <polygon class="fil2" points="11604.52,5960.04 11330.9,6062.88 11317.82,5658.88 11104.99,5738.85 11118.07,6142.85 10844.46,6245.62 10853.03,6510.84 11126.61,6408 11145.98,7007.76 11358.81,6927.78 11339.48,6328.06 11613.06,6225.23 "/>
  <path class="fil21" d="M11343.32 6447.27l-3.84 -119.21 273.58 -102.83 -8.54 -265.19 -273.62 102.84 -13.08 -404 -212.83 79.97 13.08 404 -88.23 33.13c-3.63,-19.9 -6.1,-40.71 -7.26,-62.34 -7.98,-148.38 40.85,-305.96 117.12,-446.19 32.21,-19.51 65.4,-36.09 99.52,-48.86 56.02,-21.06 110.45,-31.08 162.06,-31.08 176.46,0 320.22,117.12 383.44,311.15 -1.45,11.04 -2.82,22.08 -4.48,33.16 -34.26,228.88 -169.79,424.32 -347.56,493.82 -30.3,11.82 -60.25,18.91 -89.36,21.63z"/>
  <path class="fil2" d="M11316.58 6448.5c-140.02,0 -255.9,-103.61 -286.74,-272.52l88.23 -33.13 -13.08 -404 212.83 -79.97 13.08 404 273.62 -102.84 8.54 265.19 -273.58 102.83 3.84 119.21c-8.99,0.81 -17.92,1.23 -26.74,1.23z"/>
  <path class="fil22" d="M11064.17 7204.08c-0.04,0 -0.07,0 -0.11,0 0.04,0 0.07,0 0.11,0l0 0zm0.07 0c61.45,-0.04 126.22,-11.85 192.9,-36.72 -66.71,24.87 -131.41,36.72 -192.9,36.72zm193.15 -36.83c0.45,-0.18 0.91,-0.32 1.37,-0.49 354.65,-133.25 633.63,-585.9 642.37,-1029.06l0 0c-8.74,443.16 -287.72,895.81 -642.37,1029.06 -0.46,0.17 -0.92,0.31 -1.37,0.49z"/>
  <path class="fil23" d="M10563.37 6594.13c-0.07,-1.24 -0.11,-2.51 -0.18,-3.78 0.07,1.27 0.11,2.54 0.18,3.78zm-0.36 -9.42l0 0c-0.03,-0.46 -0.03,-0.88 -0.03,-1.34 0,0.46 0,0.88 0.03,1.34l0 0zm-0.03 -1.38c-3.39,-108.34 9.98,-218.05 37.22,-324.31 -27.24,106.26 -40.61,215.97 -37.22,324.31zm37.22 -324.31c0.1,-0.35 0.17,-0.74 0.28,-1.09 -0.11,0.39 -0.18,0.74 -0.28,1.09zm0.38 -1.41c0,-0.07 0.04,-0.14 0.04,-0.21 0,0.07 -0.04,0.14 -0.04,0.21zm1300.24 -175.65c-0.07,-1.97 -0.14,-3.98 -0.21,-5.92 0.07,1.97 0.14,3.95 0.21,5.92z"/>
  <path class="fil24" d="M11064.17 7204.08c-0.04,0 -0.07,0 -0.11,0 -276.01,-0.11 -485.35,-238.9 -500.69,-609.95 -0.07,-1.24 -0.11,-2.51 -0.18,-3.78 -0.07,-1.87 -0.11,-3.77 -0.18,-5.64l0 0c-0.03,-0.46 -0.03,-0.88 -0.03,-1.34l0 -0.04c-3.39,-108.34 9.98,-218.05 37.22,-324.31l0 0c0.1,-0.35 0.17,-0.7 0.28,-1.09 0.03,-0.11 0.07,-0.21 0.1,-0.32 0,-0.07 0.04,-0.14 0.04,-0.21 60.47,-234.56 188.52,-452.08 353.13,-600.36 -57.96,143.97 -92.53,296.44 -93.38,445.31 -0.25,47.17 3.92,91.48 11.96,132.83l-27.87 10.44 8.57 265.22 125.2 -47.06c42.9,50.2 95.32,87.7 153.78,111.01l13.97 432.97 212.83 -79.98 -10.65 -330.87c7.44,-1.2 14.95,-2.61 22.43,-4.19 222.85,-47.56 439.28,-268.61 527.79,-555.07 0.99,12.63 1.73,25.4 2.23,38.39 0.07,1.94 0.14,3.95 0.21,5.92l0 0c0.35,11.22 0.53,22.48 0.53,33.73 0,7.34 -0.07,14.67 -0.22,22.01 -8.74,443.16 -287.72,895.81 -642.37,1029.06 -0.46,0.17 -0.92,0.31 -1.37,0.49 -0.07,0.03 -0.18,0.07 -0.25,0.11 -66.68,24.87 -131.45,36.68 -192.9,36.72 -0.04,0 -0.04,0 -0.07,0z"/>
  <path class="fil3" d="M11145.98 7007.76l-13.97 -432.97c45.86,18.28 95.39,27.77 146.86,27.77 22.75,0 45.9,-1.87 69.29,-5.65l10.65 330.87 -212.83 79.98zm-292.95 -496.92l-8.57 -265.22 27.87 -10.44c17.96,92.18 55.24,169.26 105.9,228.6l-125.2 47.06z"/>
  <path class="fil14" d="M8444.34 10528.9l0 -429.08 227.43 -90.59 0 404.46 -227.43 115.21zm0 -874.99l0 -2139.32 227.43 -90.59 0 2139.95 -227.43 89.96zm0 -2585.26l0 -752.72 227.43 -87.95 0 750.74 -227.43 89.93z"/>
  <polygon class="fil9" points="8444.34,10099.82 8444.34,9653.91 8671.77,9563.95 8671.77,10009.23 "/>
  <polygon class="fil9" points="8444.34,7514.59 8444.34,7068.65 8671.77,6978.72 8671.77,7424 "/>
  <path class="fil6" d="M2315.17 7658.39c0,0 7.37,12.7 22.95,35.24 14.6,23.07 39.62,54.71 69.45,95.81 32.18,39.66 69.87,88.44 117.55,140.83 45.26,54.29 103.28,109.4 162.81,172.3 31.97,29.42 65.25,60.04 99.64,91.72 17.43,15.56 34.2,32.39 52.47,48.16 18.63,15.34 37.51,30.93 56.66,46.74 38.59,31.29 76.97,64.77 118.31,96.41 42.03,30.76 84.95,62.2 128.64,94.16 21.95,15.73 43.2,32.84 66.22,47.84 23.14,14.74 46.57,29.59 70.07,44.52 46.99,29.81 94.44,60.11 141.8,91.3 49.61,27.72 99.56,55.63 149.71,83.67l75.46 41.98 37.82 20.89 39.3 18.27c52,24.98 104.1,49.92 155.89,74.79 25.97,12.42 51.82,24.87 77.68,37.26 25.76,12.45 52.92,21.51 79.17,32.38 53.05,20.67 105.41,41.7 157.02,62.94 51.75,20.81 102.23,43.21 154.48,58.42 103.29,33.19 202.7,67.16 297.25,99.13 96.38,25.93 187.47,50.44 271.6,73.06 42.09,11.53 82.48,22.57 120.86,33.09 38.56,9.63 75.75,16.33 110.39,23.95 69.5,14.99 130.07,28.08 179.99,38.88 99.9,22.89 156.98,35.98 156.98,35.98 0,0 -58.14,-4.87 -160.12,-15.17 -51.05,-5.5 -113,-12.17 -184.05,-19.86 -35.45,-4.38 -73.52,-7.59 -113.2,-13.62 -39.34,-7.62 -80.76,-15.59 -124.01,-23.92 -86.39,-16.89 -180.41,-34.5 -279.18,-56.16 -97.34,-27.2 -200.24,-55.67 -306.22,-87.03 -53.62,-13.83 -105.76,-34.89 -159.24,-54.47 -53.45,-19.54 -107.42,-39.86 -161.57,-60.78 -26.92,-10.83 -54.75,-19.86 -81.28,-32.25 -26.53,-12.38 -53.13,-24.8 -79.8,-37.25 -53.34,-24.9 -106.86,-49.95 -160.41,-74.96l-39.97 -19.16 -38.59 -21.8 -76.85 -43.82c-51.09,-29.28 -102.01,-58.45 -152.44,-87.41 -48.61,-32.11 -96.4,-64.6 -143.46,-96.84 -23.56,-16.09 -46.99,-32.07 -70.21,-47.94 -23.08,-16.09 -44.4,-34.33 -66.42,-51.23 -43.48,-34.39 -86.12,-68.23 -127.99,-101.35 -40.54,-34.61 -78.16,-70.98 -115.85,-105.02 -18.67,-17.15 -37.14,-34.08 -55.26,-50.77 -17.78,-17.04 -34.18,-35.06 -50.64,-52.35 -32.67,-34.82 -64.22,-68.44 -94.5,-100.72 -56.67,-68.23 -109.73,-129.36 -150.42,-188.8 -43.58,-57.01 -75.69,-110.99 -103.38,-154.2 -25.84,-44.56 -45.38,-79.84 -57.12,-104.81 -12.43,-24.52 -17.99,-38.03 -17.99,-38.03z"/>
  <path class="fil6" d="M3568.1 6137.91c0,0 9.98,9.6 29.49,26.57 19.09,17.28 48.69,41.06 85.76,71.65 18.81,14.96 39.65,31.5 62.37,49.53 23.08,17.46 48.09,36.3 74.83,56.48 26.32,20.56 55.63,40.78 86.25,62.37 31.01,21.2 61.81,45.65 96.49,67.84 68.26,45.89 142.13,95.35 222.11,144.88 78.59,51.72 165.8,99.42 253.29,152.79 88.97,51.12 182.46,101.04 276.86,152.79 47.87,24.62 96.17,49.46 144.6,74.4 48.3,25.22 96.98,50.2 146.94,72.67 49.31,23.74 98.63,47.49 147.77,71.12 24.59,11.79 49.11,23.53 73.59,35.25 24.87,10.86 49.68,21.66 74.4,32.42 99.49,41.48 194.39,89.57 290.31,126.71 95.42,38.07 187.04,76.7 274.14,113.03 88.41,32.81 171.73,64.77 248.6,94.65 38.49,14.89 75.36,29.18 110.39,42.76 35.2,13.34 68.96,24.69 100.54,36.09 63.18,22.82 118.14,42.72 163.47,59.13 90.56,33.44 142.17,53.55 142.17,53.55 0,0 -53.97,-11.5 -148.09,-33.38 -47.03,-11.25 -104.11,-24.94 -169.58,-40.64 -32.7,-8.22 -67.63,-16.26 -104.14,-26.07 -36.2,-10.76 -74.3,-22.05 -114.02,-33.83 -79.48,-23.63 -165.66,-49.25 -256.29,-78 -89.68,-31.61 -184.4,-64.66 -281.73,-100.75 -49.04,-17.07 -97.9,-37.04 -147.32,-57.5 -49.5,-20.08 -99.48,-40.82 -149.65,-62.23 -25.08,-10.62 -50.34,-21.28 -75.6,-31.96 -24.91,-11.58 -49.85,-23.22 -74.93,-34.82 -49.99,-23.43 -100.19,-46.96 -150.42,-70.45 -50.28,-23.36 -99.35,-49.22 -148.07,-75.29 -48.78,-25.86 -97.43,-51.57 -145.69,-77.11 -48.4,-25.26 -94.37,-54.19 -140.55,-81.14 -45.79,-27.73 -92.04,-53.34 -135.64,-81.74 -87.53,-56.38 -172.33,-110.31 -249.13,-167.04 -38.56,-28.08 -77.12,-53.76 -112.4,-81.53 -35.28,-27.73 -69.32,-54.54 -102.06,-80.26 -64.77,-52.17 -122.62,-101.88 -172.33,-147.7 -24.73,-23.04 -48.15,-44.17 -69.14,-64.49 -20.57,-20.78 -39.44,-39.87 -56.48,-57.08 -33.8,-34.75 -58.95,-63.32 -75.78,-83.15 -16.9,-19.65 -25.33,-30.52 -25.33,-30.52z"/>
  <path class="fil25" d="M4313.77 5664.7c0,0 11.43,-355.21 330.16,-374.69l820.28 357.47c0,0 -319.23,16.09 -347.98,362.34l-802.46 -345.12z"/>
  <path class="fil26" d="M5116.23 6009.82l352.85 -122.27 -4.87 -240.07c0,0 -352.99,-15.63 -347.98,362.34z"/>
  <path class="fil27" d="M5191.62 6044.82c0,0 11.43,-355.25 330.09,-374.69l820.35 357.44c0,0 -319.19,16.12 -347.94,362.37l-802.5 -345.12z"/>
  <path class="fil28" d="M5994.12 6389.94l352.78 -122.31 -4.84 -240.06c0,0 -352.95,-15.63 -347.94,362.37z"/>
  <path class="fil25" d="M6097.27 6443.1c0,0 11.43,-355.24 330.09,-374.68l820.35 357.43c0,0 -319.3,16.09 -348.01,362.37l-802.43 -345.12z"/>
  <path class="fil26" d="M6899.7 6788.22l352.85 -122.3 -4.84 -240.07c0,0 -352.99,-15.63 -348.01,362.37z"/>
 </g>
</svg>
