<?xml version="1.0" encoding="UTF-8"?>
<!DOCTYPE svg PUBLIC "-//W3C//DTD SVG 1.1//EN" "http://www.w3.org/Graphics/SVG/1.1/DTD/svg11.dtd">
<!-- Creator: CorelDRAW 2019 (64 Bit) -->
<svg xmlns="http://www.w3.org/2000/svg" xml:space="preserve" width="29.6332mm" height="29.6332mm" version="1.1" style="shape-rendering:geometricPrecision; text-rendering:geometricPrecision; image-rendering:optimizeQuality; fill-rule:evenodd; clip-rule:evenodd"
viewBox="0 0 2963.32 2963.32"
 xmlns:xlink="http://www.w3.org/1999/xlink">
 <defs>
  <style type="text/css">
   <![CDATA[
    .fil2 {fill:#F05050;fill-rule:nonzero}
    .fil1 {fill:#F0F0F0;fill-rule:nonzero}
    .fil0 {fill:white;fill-rule:nonzero}
   ]]>
  </style>
 </defs>
 <g id="Camada_x0020_1">
  <metadata id="CorelCorpID_0Corel-Layer"/>
  <path class="fil0" d="M2179.55 904.49l0 123.55 -1323.1 0 0 -123.55 1323.1 0zm0 408.29l-1323.1 0 0 -123.57 1323.1 0 0 123.57zm0 284.63l-1323.1 0 0 -123.57 1323.1 0 0 123.57zm0 739.3l-161.26 0 0 161.35 -139.66 0 0 -161.35 -161.36 0 0 -139.65 161.36 0 0 -161.26 139.66 0 0 161.26 161.26 0 0 139.65zm-532.58 -454.67l-790.52 0 0 -123.56 790.52 0 0 123.56zm-1007.87 -1488.97l0 2285.28 1738.92 0 0 -2285.28 -264.37 0 0 226.7c0,44.82 -36.43,81.24 -81.33,81.24l-1038.64 0c-44.82,0 -81.22,-36.42 -81.22,-81.24l0 -226.7 -273.36 0z"/>
  <path class="fil1" d="M2362.02 393.07l0 2285.28 -1738.92 0 0 -2285.28 273.36 0 0 226.7c0,44.82 36.4,81.24 81.22,81.24l1038.64 0c44.9,0 81.33,-36.42 81.33,-81.24l0 -226.7 264.37 0zm-1303.01 -94.52l876.06 0 0 239.9 -876.06 0 0 -239.9zm957.31 -243.17l-1038.64 0c-44.82,0 -81.22,36.36 -81.22,81.29l0 62.08 -422.89 0c-45.35,0 -82.25,36.76 -82.25,82.24l0 2525.35c0,45.38 36.9,82.25 82.25,82.25l2029.49 0c45.46,0 82.35,-36.87 82.35,-82.25l0 -2525.35c0,-45.48 -36.89,-82.24 -82.35,-82.24l-405.41 0 0 -62.08c0,-44.93 -36.43,-81.29 -81.33,-81.29z"/>
  <polygon class="fil2" points="856.45,1028.04 2179.55,1028.04 2179.55,904.49 856.45,904.49 "/>
  <polygon class="fil2" points="856.45,1312.78 2179.55,1312.78 2179.55,1189.21 856.45,1189.21 "/>
  <polygon class="fil2" points="856.45,1597.41 2179.55,1597.41 2179.55,1473.84 856.45,1473.84 "/>
  <polygon class="fil2" points="856.45,1882.04 1646.97,1882.04 1646.97,1758.47 856.45,1758.47 "/>
  <polygon class="fil2" points="1878.63,2035.8 1878.63,2197.06 1717.27,2197.06 1717.27,2336.71 1878.63,2336.71 1878.63,2498.06 2018.29,2498.06 2018.29,2336.71 2179.55,2336.71 2179.55,2197.06 2018.29,2197.06 2018.29,2035.8 "/>
  <polygon class="fil2" points="1075.01,538.45 1951.07,538.45 1951.07,298.55 1075.01,298.55 "/>
 </g>
</svg>
